# xmcd CD database file
#
# Track frame offsets:
#	150
#	13783
#	25687
#	36222
#	48201
#	67503
#	80166
#	91865
#	106644
#	118950
#	134735
#	148651
#	162213
#	178732
#	190532
#
# Disc length: 2711 seconds
#
# Revision: 0
# Processed by: cddbd v1.5.1PL2 Copyright (c) Steve Scherf et al.
# Submitted via: CDex 1.51
#
DISCID=bf0a950f
DTITLE=Superstars of Country - Like a Song [CDOne)
DYEAR=1900
DGENRE=Country
TTITLE0=Merle Haggard - Big City
TTITLE1=Tammy Wynette - He Loves Me All the Way
TTITLE2=Charley Pride - I'm Just Me
TTITLE3=Larry Gatlin and the Gatlin Brothers Band - All the Gold in California
TTITLE4=Ronnie Milsap - Lost in the Fifties Tonight (In the Still of the Night)
TTITLE5=Lynn Anderson - How Can I Unlove You
TTITLE6=Moe Bandy and Joe Stampley - Just Good Ol' Boys
TTITLE7=Jerry Reed - She Got the Goldmine (I Got the Shaft)
TTITLE8=Charlie Rich - A Very Special Love Song
TTITLE9=Rosanne Cash - Never Be You
TTITLE10=Tanya Tucker - What's Your Mama's Name
TTITLE11=Mickey Gilley - Don't the Girls All Get Prettier at Closing Time
TTITLE12=Michael Johnson - Give Me Wings
TTITLE13=Henson Cargill - Skip a Rope
TTITLE14=Jim Reeves - Distant Drums
EXTD=
EXTT0=
EXTT1=
EXTT2=
EXTT3=
EXTT4=
EXTT5=
EXTT6=
EXTT7=
EXTT8=
EXTT9=
EXTT10=
EXTT11=
EXTT12=
EXTT13=
EXTT14=
PLAYORDER=
